<?xml version="1.0" encoding="utf-8"?>
<!-- Generator: Adobe Illustrator 20.1.0, SVG Export Plug-In . SVG Version: 6.00 Build 0)  -->
<svg version="1.1" id="Layer_1" xmlns="http://www.w3.org/2000/svg" xmlns:xlink="http://www.w3.org/1999/xlink" x="0px" y="0px"
	 viewBox="0 0 58.3 53.8" style="enable-background:new 0 0 58.3 53.8;" xml:space="preserve">
<style type="text/css">
	.st0{display:none;}
	.st1{display:inline;}
	.st2{fill:#1F4398;}
	.st3{fill:#3FA2A1;}
	.st4{display:inline;fill:#3FA2A1;}
	.st5{display:inline;fill:#1F4398;}
</style>
<g class="st0">
	<g class="st1">
		<path class="st2" d="M45.5,48.1H12.8c-2,0-3.7-1.6-3.7-3.7V9c0-2,1.6-3.7,3.7-3.7h32.7c2,0,3.7,1.6,3.7,3.7v35.5
			C49.2,46.5,47.5,48.1,45.5,48.1z M12.8,7c-1.1,0-2,0.9-2,2v35.5c0,1.1,0.9,2,2,2h32.7c1.1,0,2-0.9,2-2V9c0-1.1-0.9-2-2-2H12.8z"/>
	</g>
	<g class="st1">
		<g>
			<path class="st3" d="M29.2,29.1c-3.6,0-6.6-2.9-6.6-6.6s2.9-6.6,6.6-6.6s6.6,2.9,6.6,6.6S32.8,29.1,29.2,29.1z M29.2,17.6
				c-2.7,0-4.9,2.2-4.9,4.9s2.2,4.9,4.9,4.9s4.9-2.2,4.9-4.9S31.9,17.6,29.2,17.6z"/>
		</g>
		<g>
			<path class="st3" d="M21.8,36.1c-0.1,0-0.2,0-0.3-0.1c-0.4-0.2-0.6-0.7-0.5-1.1c0.1-0.2,2-4.8,8.1-4.8c6.1,0,8.1,4.6,8.2,4.8
				c0.2,0.4,0,0.9-0.5,1.1c-0.4,0.2-0.9,0-1.1-0.5c-0.1-0.1-1.6-3.8-6.6-3.8c-5,0-6.5,3.7-6.5,3.7C22.5,35.9,22.2,36.1,21.8,36.1z"
				/>
		</g>
	</g>
</g>
<g class="st0">
	<path class="st4" d="M33.8,32.7h-9.1c-0.5,0-0.8-0.4-0.8-0.8v-4.2c0-0.5,0.4-0.8,0.8-0.8s0.8,0.4,0.8,0.8V31h7.4v-3.4
		c0-0.5,0.4-0.8,0.8-0.8c0.5,0,0.8,0.4,0.8,0.8v4.2C34.6,32.4,34.2,32.7,33.8,32.7z"/>
</g>
<g class="st0">
	<path class="st5" d="M29.1,48c-0.1,0-0.3,0-0.4-0.1c-4.6-2.6-8.5-6.1-11.6-10.3c-2.5-3.4-4.4-7.2-5.8-11.5C9,18.9,9.1,13.2,9.1,13
		c0-0.4,0.3-0.8,0.7-0.8c12.7-1.7,18.7-6.4,18.7-6.4c0.3-0.2,0.7-0.2,1.1,0c0.1,0,6.1,4.7,18.7,6.4c0.4,0.1,0.7,0.4,0.7,0.8
		c0,0.2,0.1,6-2.2,13.2c-1.4,4.2-3.3,8.1-5.8,11.5c-3.1,4.2-7,7.7-11.6,10.3C29.4,47.9,29.3,48,29.1,48z M10.8,13.7
		c0,1.7,0.3,6.4,2.1,11.9c1.3,4.1,3.2,7.7,5.5,11c2.8,3.9,6.4,7.1,10.6,9.5c4.2-2.5,7.8-5.7,10.7-9.6c2.4-3.2,4.2-6.9,5.5-11
		c1.8-5.5,2.1-10.2,2.1-11.9c-10.7-1.6-16.6-5.1-18.3-6.3C27.4,8.6,21.5,12.1,10.8,13.7z"/>
</g>
<g class="st0">
	<path class="st4" d="M21.9,26.9c-0.2,0-0.4-0.1-0.6-0.2c-0.4-0.3-0.4-0.8-0.1-1.2l7.2-8.1c0.2-0.2,0.4-0.3,0.6-0.3
		c0.2,0,0.5,0.1,0.6,0.3l7.3,8.1c0.3,0.3,0.3,0.9-0.1,1.2c-0.3,0.3-0.9,0.3-1.2-0.1l-6.7-7.4l-6.5,7.4
		C22.4,26.8,22.1,26.9,21.9,26.9z"/>
</g>
<g class="st0">
	<path class="st4" d="M29.4,24.1v0.3h-0.3v-0.3H29.4 M30.4,23.2h-2.2v2.2h2.2V23.2L30.4,23.2z"/>
</g>
<g>
	<g>
		<path class="st3" d="M33.8,32.9h-9.1c-0.5,0-0.8-0.4-0.8-0.8v-4.2c0-0.5,0.4-0.8,0.8-0.8s0.8,0.4,0.8,0.8v3.4h7.4v-3.4
			c0-0.5,0.4-0.8,0.8-0.8c0.5,0,0.8,0.4,0.8,0.8v4.2C34.6,32.5,34.2,32.9,33.8,32.9z"/>
	</g>
	<g>
		<path class="st2" d="M29.1,48.2c-0.1,0-0.3,0-0.4-0.1c-4.6-2.6-8.5-6.1-11.6-10.3c-2.5-3.4-4.4-7.2-5.8-11.5
			C9,19.1,9.1,13.4,9.1,13.1c0-0.4,0.3-0.8,0.7-0.8c12.7-1.7,18.7-6.4,18.7-6.4c0.3-0.2,0.7-0.2,1.1,0c0.1,0,6.1,4.7,18.7,6.4
			c0.4,0.1,0.7,0.4,0.7,0.8c0,0.2,0.1,6-2.2,13.2c-1.4,4.2-3.3,8.1-5.8,11.5c-3.1,4.2-7,7.7-11.6,10.3
			C29.4,48.1,29.3,48.2,29.1,48.2z M10.8,13.9c0,1.7,0.3,6.4,2.1,11.9c1.3,4.1,3.2,7.7,5.5,11c2.8,3.9,6.4,7.1,10.6,9.5
			c4.2-2.5,7.8-5.7,10.7-9.6c2.4-3.2,4.2-6.9,5.5-11c1.8-5.5,2.1-10.2,2.1-11.9c-10.7-1.6-16.6-5.1-18.3-6.3
			C27.4,8.7,21.5,12.3,10.8,13.9z"/>
	</g>
	<g>
		<path class="st3" d="M21.9,27c-0.2,0-0.4-0.1-0.6-0.2C21,26.5,21,26,21.3,25.6l7.2-8.1c0.2-0.2,0.4-0.3,0.6-0.3c0,0,0,0,0,0
			c0.2,0,0.5,0.1,0.6,0.3l7.3,8.1c0.3,0.3,0.3,0.9-0.1,1.2c-0.3,0.3-0.9,0.3-1.2-0.1l-6.7-7.4l-6.5,7.4C22.4,26.9,22.1,27,21.9,27z"
			/>
	</g>
	<g>
		<path class="st3" d="M29.4,24.3v0.3h-0.3v-0.3H29.4 M30.4,23.3h-2.2v2.2h2.2V23.3L30.4,23.3z"/>
	</g>
</g>
</svg>
