<?xml version="1.0" encoding="utf-8"?>
<!-- Generator: Adobe Illustrator 20.1.0, SVG Export Plug-In . SVG Version: 6.00 Build 0)  -->
<svg version="1.1" id="Layer_1" xmlns="http://www.w3.org/2000/svg" xmlns:xlink="http://www.w3.org/1999/xlink" x="0px" y="0px"
	 viewBox="0 0 58.3 53.8" style="enable-background:new 0 0 58.3 53.8;" xml:space="preserve">
<style type="text/css">
	.st0{fill:#1F4398;}
	.st1{fill:#3FA2A1;stroke:#3FA2A1;stroke-width:0.2678;stroke-miterlimit:10;}
	.st2{fill:none;stroke:#3FA2A1;stroke-width:1.071;stroke-miterlimit:10;}
	.st3{display:none;}
	.st4{display:inline;}
	.st5{fill:#1F4398;}
	.st6{fill:#3FA2A1;}
	.st7{display:inline;fill:#3FA2A1;}
	.st8{display:inline;fill:#1F4398;}
</style>
<g>
	<g>
		<path class="st0" d="M43,45.6c0-0.1,0-0.3,0-0.4c0-0.3-0.3-0.6-0.5-0.7H12.2v-0.2c0.3-1.3,0.5-2.3,0.9-3.2
			c0.3-0.9,0.8-1.7,1.4-2.2c0.6-0.6,1.5-1.1,2.4-1.6c1-0.4,2.2-0.8,3.8-1.2c0.4-0.1,0.8-0.3,1.2-0.5c0.4-0.3,0.8-0.6,1.1-1
			s0.6-0.9,0.9-1.3c0.3-0.5,0.4-1,0.6-1.5c0.2-0.9,0.2-1.7,0-2.4c-0.2-0.7-0.6-1.4-1.2-1.8c-0.5-0.4-0.9-0.9-1.3-1.5
			c-0.3-0.5-0.6-1.1-0.8-1.7c-0.2-0.6-0.4-1.1-0.5-1.6c-0.1-0.5-0.2-1-0.2-1.4c-0.1-1-0.1-1.8,0-2.6c0.1-0.8,0.2-1.3,0.3-1.6v-0.1
			h0.1c0.3,0,0.7,0,1.2-0.1c0.5,0,0.9-0.1,1.5-0.2c0.5-0.1,1.1-0.3,1.6-0.5c0.5-0.2,1.1-0.5,1.6-0.9l0.1-0.1l0.1,0.1
			c0.5,0.4,1,0.7,1.6,0.9c0.5,0.2,1.1,0.4,1.6,0.5s1,0.2,1.5,0.2s0.9,0.1,1.2,0.1h0.1v0.1c0.1,0.3,0.2,0.9,0.3,1.6
			c0.1,0.8,0.1,1.7,0,2.6c0,0.4-0.1,0.8-0.2,1.4c-0.1,0.5-0.3,1.1-0.5,1.6c-0.2,0.6-0.5,1.1-0.8,1.7c-0.3,0.5-0.8,1-1.3,1.5
			c-0.6,0.5-1.1,1.2-1.3,1.8c-0.2,0.8-0.2,1.6,0,2.4c0.1,0.5,0.3,1,0.6,1.5c0.3,0.5,0.6,0.9,0.9,1.3c0.3,0.4,0.7,0.7,1.1,1l0.4-2.2
			l-0.1,0.1c-0.5-0.6-0.9-1.3-1-2c-0.1-0.5-0.1-1,0-1.5c0.1-0.4,0.4-0.8,0.8-1.2c0.5-0.5,1-1,1.4-1.5c0.4-0.6,0.7-1.1,0.9-1.7
			c0.3-0.6,0.4-1.2,0.6-1.7c0.1-0.6,0.2-1.1,0.3-1.6c0.2-1.2,0.2-2.3,0.1-3.3c-0.1-1-0.2-1.8-0.4-2.3s-0.4-0.8-0.7-1
			s-0.5-0.2-0.7-0.2s-0.6,0-1,0c-0.5,0-1-0.1-1.5-0.2s-1.1-0.3-1.7-0.6s-1.1-0.6-1.6-1.1c-0.1-0.1-0.2-0.1-0.3-0.2
			c-0.2-0.1-0.4-0.1-0.7,0c-0.1,0-0.2,0.1-0.3,0.2c-0.5,0.5-1,0.8-1.6,1.1c-0.6,0.2-1.1,0.4-1.7,0.6c-0.5,0.1-1.1,0.2-1.5,0.2
			s-0.8,0-1,0s-0.4,0.1-0.7,0.2c-0.2,0.1-0.5,0.5-0.7,1c-0.2,0.6-0.4,1.4-0.4,2.3c-0.1,1-0.1,2.1,0.1,3.3c0.1,0.5,0.2,1.1,0.3,1.6
			c0.1,0.6,0.3,1.2,0.6,1.7c0.3,0.6,0.6,1.2,0.9,1.7c0.4,0.6,0.8,1.1,1.4,1.5c0.4,0.3,0.6,0.7,0.7,1.1s0.1,0.9,0,1.5
			c-0.2,0.8-0.5,1.5-1,2c-0.5,0.6-1,1-1.4,1.1c-1,0.2-1.8,0.5-2.6,0.7c-0.8,0.3-1.5,0.5-2,0.8c-0.6,0.3-1.2,0.6-1.6,1
			c-0.5,0.3-0.9,0.7-1.2,1.1c-0.3,0.4-0.7,0.9-0.9,1.4c-0.3,0.5-0.5,1-0.7,1.6s-0.4,1.2-0.5,1.9c-0.1,0.7-0.3,1.5-0.5,2.3
			c0,0.1,0,0.2,0,0.4c0,0.1,0.1,0.2,0.2,0.3c0.1,0.1,0.2,0.2,0.3,0.2c0.1,0.1,0.2,0.1,0.4,0.1h31c0.1,0,0.3,0,0.4-0.1
			c0.1-0.1,0.2-0.1,0.3-0.2C42.9,45.8,43,45.7,43,45.6z"/>
		<path class="st0" d="M18.2,9.8c-0.6,0.6-1.1,1.2-1.6,1.9c-0.5,0.7-0.8,1.5-1.1,2.3c-0.1,0.5-0.3,1-0.5,1.5
			c-0.2,0.5-0.3,1.1-0.5,1.7c-0.2,0.8-0.5,1.7-0.7,2.6c-0.2,0.9-0.5,1.8-0.8,2.8c-0.3,1-0.7,1.9-1.2,2.9c-0.4,1-0.9,1.9-1.5,2.8
			c-0.1,0.1-0.1,0.3-0.1,0.4s0,0.3,0.1,0.4s0.2,0.2,0.3,0.3c0.1,0.1,0.2,0.1,0.4,0.2c0.4,0.1,1.1,0.2,1.7,0.4
			c0.8,0.2,1.6,0.3,2.3,0.5s1.6,0.4,2.2,0.6c0.7,0.2,1.3,0.4,1.7,0.6c0.2,0.1,0.4,0.1,0.7,0.1c0.2-0.1,0.4-0.2,0.5-0.4
			s0.1-0.4,0.1-0.7c-0.1-0.2-0.2-0.4-0.4-0.5c-0.4-0.2-0.9-0.4-1.5-0.6c-0.6-0.2-1.2-0.4-1.8-0.5c-0.7-0.2-1.4-0.3-2-0.5
			c-0.7-0.1-1.3-0.3-1.7-0.4h-0.2l0.1-0.2c0.5-0.9,0.9-1.7,1.3-2.7c0.4-0.9,0.7-1.7,1-2.6c0.3-0.9,0.6-1.7,0.8-2.5
			c0.2-0.9,0.5-1.7,0.7-2.4c0.2-0.6,0.3-1.2,0.5-1.7c0.1-0.5,0.3-1,0.4-1.5c0.2-0.7,0.5-1.4,0.9-1.9c0.4-0.6,0.8-1.2,1.3-1.6
			c0.5-0.5,1-0.9,1.6-1.2s1.2-0.6,1.7-0.7c0.7-0.2,1.4-0.2,1.9-0.1c0.7,0.1,1.2,0.3,1.5,0.7c0.1,0.1,0.2,0.1,0.3,0.2
			c0.2,0.1,0.5,0.1,0.7,0c0.1,0,0.2-0.1,0.3-0.2c0.2-0.6,0.7-0.8,1.3-0.9s1.3-0.1,2,0.1c0.6,0.2,1.3,0.4,1.7,0.7
			c0.6,0.3,1.1,0.7,1.6,1.2s0.9,1,1.3,1.6c0.4,0.6,0.7,1.3,0.9,1.9c0.2,0.4,0.3,0.9,0.4,1.5c0.1,0.5,0.3,1.1,0.5,1.7
			c0.2,0.8,0.4,1.6,0.7,2.4c0.2,0.8,0.5,1.7,0.8,2.5c0.3,0.9,0.6,1.7,1,2.6l-0.2,0.1l2.1,0.1c-0.4-1-0.8-1.8-1.1-2.8
			c-0.3-1-0.6-1.9-0.9-2.8c-0.3-0.9-0.5-1.7-0.7-2.6c-0.2-0.6-0.3-1.2-0.5-1.7c-0.1-0.5-0.3-1-0.4-1.5c-0.3-0.9-0.7-1.7-1.2-2.4
			c-0.5-0.8-1.1-1.4-1.7-1.9c-0.6-0.5-1.2-1-1.8-1.3c-0.7-0.4-1.4-0.6-2-0.8c-0.9-0.2-1.7-0.3-2.4-0.2c-0.8,0.1-1.5,0.3-2,0.7h-0.1
			l-0.1-0.1c-0.6-0.3-1.3-0.6-1.9-0.7c-0.8-0.1-1.6,0-2.3,0.2c-0.8,0.2-1.6,0.5-2.2,0.9C19.4,8.8,18.7,9.2,18.2,9.8z"/>
	</g>
	<g>
		<path class="st1" d="M42.3,30l1.4,2.7l3.1,0.5c0.3,0,0.6,0.2,0.7,0.6c0.1,0.3,0,0.6-0.2,0.9L45,36.9l0.5,3.1
			c0,0.4-0.1,0.6-0.4,0.9C45,41,44.8,41,44.6,41c-0.1,0-0.3,0-0.4-0.1l-2.6-1.5l-2.6,1.5C38.9,41,38.7,41,38.6,41
			c-0.2,0-0.4,0-0.5-0.1c-0.3-0.2-0.4-0.5-0.4-0.9l0.5-3.1l-2.2-2.2c-0.2-0.2-0.3-0.5-0.2-0.9c0.1-0.3,0.3-0.5,0.7-0.6l3.1-0.5
			l1.4-2.7c0.2-0.3,0.4-0.5,0.8-0.5C42.1,29.5,42.1,29.7,42.3,30z M40.1,33l-0.3,0.5l-0.5,0.1l-3,0.5l2.2,2.2l0.4,0.4l-0.1,0.5
			l-0.5,3.1l2.7-1.5l0.5-0.3l0.5,0.3l2.7,1.5l-0.5-3.1l-0.1-0.5l0.4-0.4l2.2-2.2l-3-0.5l-0.5-0.1L43,33l-1.4-2.8L40.1,33z"/>
	</g>
	<circle class="st2" cx="41.4" cy="35.9" r="8.6"/>
</g>
<g class="st3">
	<g class="st4">
		<path class="st5" d="M45.5,48.1H12.8c-2,0-3.7-1.6-3.7-3.7V9c0-2,1.6-3.7,3.7-3.7h32.7c2,0,3.7,1.6,3.7,3.7v35.5
			C49.2,46.5,47.5,48.1,45.5,48.1z M12.8,7c-1.1,0-2,0.9-2,2v35.5c0,1.1,0.9,2,2,2h32.7c1.1,0,2-0.9,2-2V9c0-1.1-0.9-2-2-2H12.8z"/>
	</g>
	<g class="st4">
		<g>
			<path class="st6" d="M29.2,29.1c-3.6,0-6.6-2.9-6.6-6.6s2.9-6.6,6.6-6.6s6.6,2.9,6.6,6.6S32.8,29.1,29.2,29.1z M29.2,17.6
				c-2.7,0-4.9,2.2-4.9,4.9s2.2,4.9,4.9,4.9s4.9-2.2,4.9-4.9S31.9,17.6,29.2,17.6z"/>
		</g>
		<g>
			<path class="st6" d="M21.8,36.1c-0.1,0-0.2,0-0.3-0.1c-0.4-0.2-0.6-0.7-0.5-1.1c0.1-0.2,2-4.8,8.1-4.8s8.1,4.6,8.2,4.8
				c0.2,0.4,0,0.9-0.5,1.1c-0.4,0.2-0.9,0-1.1-0.5c-0.1-0.1-1.6-3.8-6.6-3.8s-6.5,3.7-6.5,3.7C22.5,35.9,22.2,36.1,21.8,36.1z"/>
		</g>
	</g>
</g>
<g class="st3">
	<path class="st7" d="M33.8,32.7h-9.1c-0.5,0-0.8-0.4-0.8-0.8v-4.2c0-0.5,0.4-0.8,0.8-0.8s0.8,0.4,0.8,0.8V31h7.4v-3.4
		c0-0.5,0.4-0.8,0.8-0.8c0.5,0,0.8,0.4,0.8,0.8v4.2C34.6,32.4,34.2,32.7,33.8,32.7z"/>
</g>
<g class="st3">
	<path class="st8" d="M29.1,48c-0.1,0-0.3,0-0.4-0.1c-4.6-2.6-8.5-6.1-11.6-10.3c-2.5-3.4-4.4-7.2-5.8-11.5C9,18.9,9.1,13.2,9.1,13
		c0-0.4,0.3-0.8,0.7-0.8c12.7-1.7,18.7-6.4,18.7-6.4c0.3-0.2,0.7-0.2,1.1,0c0.1,0,6.1,4.7,18.7,6.4c0.4,0.1,0.7,0.4,0.7,0.8
		c0,0.2,0.1,6-2.2,13.2c-1.4,4.2-3.3,8.1-5.8,11.5c-3.1,4.2-7,7.7-11.6,10.3C29.4,47.9,29.3,48,29.1,48z M10.8,13.7
		c0,1.7,0.3,6.4,2.1,11.9c1.3,4.1,3.2,7.7,5.5,11c2.8,3.9,6.4,7.1,10.6,9.5c4.2-2.5,7.8-5.7,10.7-9.6c2.4-3.2,4.2-6.9,5.5-11
		c1.8-5.5,2.1-10.2,2.1-11.9C36.6,12,30.7,8.5,29,7.3C27.4,8.6,21.5,12.1,10.8,13.7z"/>
</g>
<g class="st3">
	<path class="st7" d="M21.9,26.9c-0.2,0-0.4-0.1-0.6-0.2c-0.4-0.3-0.4-0.8-0.1-1.2l7.2-8.1c0.2-0.2,0.4-0.3,0.6-0.3s0.5,0.1,0.6,0.3
		l7.3,8.1c0.3,0.3,0.3,0.9-0.1,1.2c-0.3,0.3-0.9,0.3-1.2-0.1l-6.7-7.4l-6.5,7.4C22.4,26.8,22.1,26.9,21.9,26.9z"/>
</g>
<g class="st3">
	<path class="st7" d="M29.4,24.1v0.3h-0.3v-0.3H29.4 M30.4,23.2h-2.2v2.2h2.2V23.2L30.4,23.2z"/>
</g>
</svg>
